HIERARCHY
ROOT Hips
{
  OFFSET 13.6774 106.653 -34.4427
  CHANNELS 6 Xposition Yposition Zposition Zrotation Xrotation Yrotation
  JOINT ToSpine
  {
    OFFSET -2.69724 7.43032 -0.144315
    CHANNELS 3 Zrotation Xrotation Yrotation
    JOINT Spine
    {
      OFFSET -0.0310711 10.7595 1.96963
      CHANNELS 3 Zrotation Xrotation Yrotation
      JOINT Spine1
      {
        OFFSET 19.9056 3.91189 0.764692
        CHANNELS 3 Zrotation Xrotation Yrotation
        JOINT Neck
        {
          OFFSET 25.9749 7.03908 -0.130764
          CHANNELS 3 Zrotation Xrotation Yrotation
          JOINT Head
          {
            OFFSET 9.52751 0.295786 -0.907742
            CHANNELS 3 Zrotation Xrotation Yrotation
            End Site
            {
              OFFSET 16.4037 0.713936 2.7358
            }
          }
        }
        JOINT LeftShoulder
        {
          OFFSET 17.7449 4.33886 11.7777
          CHANNELS 3 Zrotation Xrotation Yrotation
          JOINT LeftArm
          {
            OFFSET 0.911315 1.27913 9.80584
            CHANNELS 3 Zrotation Xrotation Yrotation
            JOINT LeftForeArm
            {
              OFFSET 28.6126 1.18197 -3.53199
              CHANNELS 3 Zrotation Xrotation Yrotation
              JOINT LeftHand
              {
                OFFSET 27.5088 0.0218783 0.327423
                CHANNELS 3 Zrotation Xrotation Yrotation
                End Site
                {
                  OFFSET 18.6038 -0.000155887 0.382096
                }
              }
            }
          }
        }
        JOINT RightShoulder
        {
          OFFSET 17.1009 2.89543 -12.2328
          CHANNELS 3 Zrotation Xrotation Yrotation
          JOINT RightArm
          {
            OFFSET 1.4228 0.178766 -10.211
            CHANNELS 3 Zrotation Xrotation Yrotation
            JOINT RightForeArm
            {
              OFFSET 28.733 1.87905 2.64907
              CHANNELS 3 Zrotation Xrotation Yrotation
              JOINT RightHand
              {
                OFFSET 27.4588 0.290562 -0.101845
                CHANNELS 3 Zrotation Xrotation Yrotation
                End Site
                {
                  OFFSET 17.8396 -0.255518 -0.000602873
                }
              }
            }
          }
        }
      }
    }
  }
  JOINT LeftUpLeg
  {
    OFFSET -5.61296 -2.22332 -10.2353
    CHANNELS 3 Zrotation Xrotation Yrotation
    JOINT LeftLeg
    {
      OFFSET 2.56703 -44.7417 -7.93097
      CHANNELS 3 Zrotation Xrotation Yrotation
      JOINT LeftFoot
      {
        OFFSET 3.16933 -46.5642 -3.96578
        CHANNELS 3 Zrotation Xrotation Yrotation
        JOINT LeftToeBase
        {
          OFFSET 0.346054 -6.02161 12.8035
          CHANNELS 3 Zrotation Xrotation Yrotation
          End Site
          {
            OFFSET 0.134235 -1.35082 5.13018
          }
        }
      }
    }
  }
  JOINT RightUpLeg
  {
    OFFSET -5.7928 -1.72406 10.6446
    CHANNELS 3 Zrotation Xrotation Yrotation
    JOINT RightLeg
    {
      OFFSET -2.57161 -44.7178 -7.85259
      CHANNELS 3 Zrotation Xrotation Yrotation
      JOINT RightFoot
      {
        OFFSET -3.10148 -46.5936 -4.03391
        CHANNELS 3 Zrotation Xrotation Yrotation
        JOINT RightToeBase
        {
          OFFSET -0.0828122 -6.13587 12.8035
          CHANNELS 3 Zrotation Xrotation Yrotation
          End Site
          {
            OFFSET -0.131328 -1.35082 5.13018
          }
        }
      }
    }
  }
}
MOTION
Frames: 15
Frame Time: 0.03333333333333333
0.0000 93.1000 0.0000 -55.7860 -51.8697 -152.6290 -70.9064 -0.0873 88.0532 104.8853 72.8925 -14.5149 1.1351 21.1452 4.8381 -134.8480 20.3340 -178.3407 -139.5654 57.2628 -176.1842 -0.5494 -15.9921 -26.7443 -80.6762 16.1273 -113.4365 7.3915 8.8841 -41.0277 0.1038 -0.0149 0.1367 -2.4660 8.2965 36.5164 -50.7086 -35.1182 119.3997 -7.0498 -1.4368 101.7939 0.2311 -0.1338 -0.1451 -28.2629 14.4254 109.8938 -2.5922 56.5693 8.4686 -0.0254 -17.3379 -1.9416 -2.7765 -0.3809 10.6148 -49.4958 -17.8149 85.7682 0.1136 55.4537 -12.0219 -4.7137 0.2027 0.8491 1.7821 -23.6710 -7.5691 
0.0000 93.1000 0.0000 -50.1067 -59.1921 -144.6437 -70.8695 -0.1246 88.0186 103.9901 73.6055 -14.8392 0.9646 21.6844 6.3424 -133.2546 21.9285 179.2711 -143.0708 59.1281 -173.3314 -0.1595 -16.4574 -27.6660 -81.2917 19.3841 -120.2355 4.5584 4.6844 -48.1116 -0.0073 -0.3224 0.6417 -2.5629 8.2850 37.1213 -57.7415 -36.0013 119.7810 -6.3669 -0.9703 98.0382 -0.0245 -0.5205 0.1999 -29.4789 9.4299 103.7709 -2.8948 54.6493 5.7815 0.9452 -16.9983 -1.7923 -2.1002 -2.8911 13.9958 -47.7376 -15.3710 86.4554 2.9868 63.6034 -10.6971 -7.9206 2.8989 0.5176 2.4029 -14.2520 -23.3238 
0.0000 93.1000 0.0000 -42.8977 -64.8915 -136.3701 -70.8685 -0.0435 88.0390 105.1853 74.3785 -17.6055 0.9306 22.8776 6.7360 -129.7857 22.5124 175.4704 -146.9554 61.2725 -170.2833 -0.5352 -17.1514 -27.1462 -81.0900 22.8869 -127.7404 6.1024 3.4113 -57.7431 0.1079 -0.0663 0.1606 -2.7494 8.7842 37.3050 -64.7391 -34.8571 119.0989 -3.3927 -0.9294 92.6822 0.2084 -0.1262 -0.0550 -31.4706 5.8784 103.1544 -3.7474 54.0434 2.5036 0.9465 -18.3941 -2.0718 -3.5054 -0.9550 12.1506 -44.5993 -12.7413 87.0549 6.7301 70.5182 -9.6407 -12.3542 0.5426 1.6546 2.2314 -20.9431 -14.2060 
0.0000 93.1000 0.0000 -29.4146 -70.3675 -121.7372 -70.8580 -0.0507 88.0694 108.9657 74.6531 -21.8276 -0.0584 23.7001 6.3822 -129.0478 23.1637 173.0534 -151.1271 63.0319 -166.7345 -0.4637 -17.1146 -26.5579 -78.8848 25.9891 -132.7267 7.3096 2.8586 -66.2800 0.2729 -0.1374 0.1027 -2.8630 9.0234 36.5332 -71.9974 -32.7140 118.1826 -2.4771 -0.1887 87.7792 0.5056 -0.1961 -0.2026 -34.1322 3.9687 102.1724 -3.9142 51.0759 -2.6651 0.9312 -17.8767 -1.9579 -3.3344 -0.1426 10.5958 -41.6065 -11.3445 84.2617 9.8440 71.4438 -4.9245 -7.8782 -4.0571 1.2160 2.3192 -21.7560 -18.3500 
0.0000 93.1000 0.0000 -6.8977 -73.1109 -97.5471 -70.8558 -0.1138 88.1182 112.3609 74.4802 -25.1194 -1.0382 23.8833 5.0779 -126.5847 24.0460 170.3448 -153.4963 64.2105 -164.3456 0.2035 -16.0758 -25.5437 -75.9761 28.2497 -136.7559 9.8210 2.3557 -75.4333 -0.0022 -0.5936 0.0113 -2.9295 8.9847 37.1419 -79.4429 -30.5322 116.3861 -2.0727 0.2405 83.7897 0.8841 -0.6132 -0.0427 -34.9124 2.1627 99.8663 -4.3412 50.4558 -4.9524 2.2566 -16.9329 -1.6068 -2.0196 -2.1456 10.1164 -37.9572 -12.0809 79.4940 7.5611 69.9304 -6.5025 -8.6503 -7.5149 0.9924 1.7280 -22.6675 -12.5063 
0.0000 93.1000 0.0000 17.1030 -72.0135 -72.4675 -70.8460 -0.0213 88.1025 117.0664 73.8091 -27.8351 -2.7353 23.7750 4.6116 -124.6859 24.6313 169.8359 -159.7039 65.1397 -158.0740 -0.1974 -15.2934 -23.3960 -73.9228 30.6907 -140.6359 13.7006 1.2373 -83.3810 0.0498 -0.1526 -0.2945 -3.1735 9.6721 38.4269 -87.1668 -26.3984 114.3785 -0.1598 -1.2384 79.7680 0.2619 -0.0758 -0.2651 -36.6031 0.0151 96.6095 -3.8865 49.0426 -8.1630 2.9346 -16.6043 -2.0769 -0.9649 -3.4794 10.9183 -34.7186 -12.7101 77.2118 4.2291 64.9707 -3.4229 -7.2520 -10.8238 1.2072 2.1018 -19.2283 -18.7386 
0.0000 93.1000 0.0000 35.8703 -68.9522 -51.5189 -70.8478 -0.0226 88.1301 116.2849 73.8445 -29.8052 -3.2012 23.9565 5.6815 -124.7977 25.6237 167.7687 -162.0493 67.2196 -156.9633 -0.2454 -15.9588 -24.2977 -74.8414 30.2902 -140.8040 16.3228 -0.0963 -89.2306 -0.3140 -0.1540 -0.0698 -3.1961 10.0459 36.6265 -94.9987 -24.4485 112.4333 3.7261 -1.8186 75.1199 0.1926 -0.0749 -0.2379 -36.8672 -1.0404 94.0190 -4.6090 49.8457 -10.7653 3.8670 -16.0271 -2.0590 0.0025 -6.2118 12.7266 -31.7134 -12.8530 76.7106 3.0066 57.2410 -2.7063 -8.0681 -9.5465 1.1441 2.4154 -19.0964 -19.2175 
0.0000 93.1000 0.0000 46.7666 -65.1611 -38.1298 -70.8695 -0.0294 88.1454 119.3298 74.4158 -32.1223 -3.8724 24.8792 5.3772 -123.8281 26.4427 164.1622 -163.1373 68.8324 -156.4327 -0.1891 -16.3189 -24.1075 -74.1380 31.1324 -142.7203 16.1055 -1.0126 -91.7709 -0.3060 -0.2327 0.0263 -3.3197 10.0042 36.2952 -102.0781 -19.1596 111.1370 5.3988 -2.3624 71.1676 0.1609 -0.1347 -0.1060 -36.8445 -2.1169 93.3036 -4.9082 50.7275 -11.8710 4.6244 -17.2962 -2.0439 -0.4329 -5.6984 13.3451 -30.9118 -13.1112 77.5346 2.3438 46.9145 -1.1592 -5.7586 -3.8872 0.4136 2.0482 -11.9778 -16.8217 
0.0000 93.1000 0.0000 55.8068 -60.2454 -28.9122 -70.8888 -0.0366 88.1545 116.9219 74.8854 -31.1230 -3.3378 24.5677 5.8523 -123.4886 27.2862 162.0845 -168.3245 70.0208 -154.7210 -0.1444 -16.9534 -23.7154 -74.8768 30.8270 -143.8324 15.5244 -2.0628 -93.7247 -0.2857 -0.2923 0.3091 -3.3618 9.9064 35.2930 -107.7333 -15.5497 108.9473 6.2982 -3.0938 66.9775 -0.0388 -0.2393 -0.1014 -37.2507 -1.5808 93.0223 -5.7578 53.1408 -12.1780 4.4751 -19.0799 -2.0225 -0.4492 -5.2306 14.1363 -30.8856 -13.8356 80.5731 1.3972 36.7112 4.0783 -2.5582 5.9810 -0.7518 2.2107 -8.7139 -14.7574 
0.0000 93.1000 0.0000 63.0964 -53.0568 -21.2715 -70.9270 0.0717 88.1416 115.1904 74.7464 -29.3183 -2.9527 23.8839 6.2939 -121.7689 28.1023 159.5521 -169.9664 71.5133 -153.7867 -0.7201 -17.2353 -23.1185 -76.1679 31.1517 -144.0222 17.4106 -1.9758 -95.6181 -0.1313 0.2207 -0.0687 -3.4492 10.0772 36.9872 -112.6257 -9.6785 108.1166 9.7625 -5.7337 61.8137 -0.1493 0.3010 -0.4071 -36.9773 0.1221 95.2598 -6.2986 55.1732 -10.6262 4.1468 -18.6569 -2.4713 0.9955 -8.0460 15.8203 -32.8246 -14.9009 81.0248 1.1945 28.1981 12.2943 0.5133 15.1558 -1.6362 1.8369 -8.3587 -14.7494 
0.0000 93.1000 0.0000 66.6508 -45.8574 -15.1310 -70.9562 0.0513 88.1642 109.2992 74.9525 -24.5262 -1.3682 23.8146 6.5037 -120.8197 28.3113 154.8859 -168.8528 72.7312 -154.1101 -0.6367 -18.2211 -23.8342 -76.1295 30.2681 -144.0423 17.9821 -2.7365 -96.0415 -0.1499 0.0956 -0.0636 -3.3281 9.3065 37.9838 -116.4834 -4.5986 106.7616 9.8836 -7.0035 57.7091 -0.2257 0.1588 -0.1726 -36.8514 1.5589 96.9763 -6.0211 56.3953 -8.7283 3.8148 -18.7418 -2.3058 0.6302 -8.0876 16.9073 -34.9092 -17.2522 81.0699 0.1903 24.3997 14.4316 3.6314 18.8509 -2.5337 2.2690 -3.1691 -15.8072 
0.0000 93.1000 0.0000 70.9706 -38.7880 -9.3090 -70.9792 0.1136 88.1705 108.1513 74.3613 -22.9611 -0.7386 23.1107 6.2580 -120.8205 29.1066 155.0287 -178.2311 74.4763 -146.7442 -0.9510 -18.4005 -24.5802 -74.9089 27.7655 -144.3976 17.3025 -3.4091 -95.9746 0.0061 0.4124 -0.3481 -3.2588 9.2834 39.9176 -119.4405 0.4150 105.0915 8.0452 -7.0785 52.8757 -0.4150 0.5098 -0.3762 -36.8355 3.5060 97.7068 -6.2375 58.3891 -7.6901 4.0352 -19.2704 -2.7922 1.7982 -10.3027 17.3395 -36.7632 -19.1798 79.6029 1.1305 26.2350 11.5905 4.7961 19.7025 -2.5644 2.1178 -4.2894 -13.2836 
0.0000 93.1000 0.0000 71.5327 -32.9711 -6.4094 -70.9802 -0.0459 88.2155 105.4933 74.2209 -20.9151 0.0393 22.6675 6.2732 -119.3918 29.0255 151.5100 -174.7526 75.9817 -147.6803 -0.0635 -18.9252 -24.3385 -73.9816 26.7261 -145.0627 17.2464 -2.0796 -95.7603 -0.5553 -0.4128 0.5161 -3.3069 8.1952 41.2770 -123.3885 3.7107 104.0562 7.9209 -7.5087 50.8712 0.6240 -0.4372 0.0690 -35.8159 6.3095 97.0612 -8.4653 61.2851 -5.5838 4.9562 -19.9106 -2.3558 3.5190 -12.5309 19.6010 -38.2145 -21.0469 75.4448 1.3431 31.7111 6.3100 0.6920 15.1234 -1.7952 1.4017 -8.6433 -5.6734 
0.0000 93.1000 0.0000 73.6516 -28.9793 -3.9252 -70.9825 -0.1194 88.2399 106.4424 74.1296 -22.2825 -0.1932 22.8606 6.7218 -118.6645 29.5945 148.8743 -175.0967 77.3163 -147.8419 0.4666 -18.8889 -24.9546 -72.0540 25.9835 -145.4316 17.8825 -2.7292 -95.8909 -0.4427 -0.8232 0.8616 -3.2846 7.9449 43.2362 -126.5312 5.8683 103.2127 8.9403 -8.8825 48.0957 1.1350 -0.8891 0.4581 -34.5146 9.3206 96.8036 -7.7824 63.3855 -5.4442 4.6279 -19.8440 -1.9231 4.3817 -14.9258 22.6104 -38.9202 -22.6787 70.3837 1.6154 38.5969 2.5341 -6.3918 10.2899 -0.6097 0.9087 -13.6425 6.0937 
0.0000 93.1000 0.0000 73.8153 -26.7707 -1.5213 -70.9717 0.3930 88.1656 105.3336 74.2574 -20.9348 0.5479 22.6604 6.5770 -119.1120 30.2220 147.5233 -176.6380 77.5531 -146.3572 -2.1787 -18.2560 -23.7381 -69.9432 26.4287 -145.4998 18.7961 -2.8558 -96.5867 0.3857 1.8207 -1.2689 -3.3565 7.8113 44.0704 -128.7404 6.5920 102.1424 8.9735 -9.0493 46.3569 -1.2329 2.0351 -0.9630 -33.3934 13.2273 96.5463 -7.2355 63.5896 -3.1627 3.5252 -18.6594 -4.2174 6.0939 -16.4036 22.9246 -40.6544 -21.8056 69.7253 2.0705 41.2448 2.1940 -4.1759 4.3650 0.8373 1.2520 -15.0471 -0.1581 
